PathFileType	4	(X/Y/Z)	Patient4_TMGait_0pt5_02_left_19.trc.trc
DataRate	CameraRate	NumFrames	NumMarkers	Units	OrigDataRate	OrigDataStartFrame	OrigNumFrames
76.502732240437	76.502732240437	7	33	mm	76.502732240437	53	       141
Frame#	Time	Sacral			L.Shoulder			Chest			R.Shoulder			Neck			R.ASIS			L.ASIS			R.Thigh.Superior			R.Thigh.Lateral			R.Thigh.Inferior			R.Patella			L.Thigh.Superior			L.Thigh.Lateral			L.Thigh.Inferior			L.Patella			L.Shank.Superior			L.Shank.Lateral			L.Shank.Inferior			R.Shank.Superior			R.Shank.Lateral			R.Shank.Inferior			R.Heel			R.Midfoot.Superior			R.Midfoot.Lateral			R.Toe			L.Heel			L.Midfoot.Lateral			L.Midfoot.Superior			L.Toe			L.Elbow			L.Wrist			R.Elbow			R.Wrist			
		X1	Y1	Z1	X2	Y2	Z2	X3	Y3	Z3	X4	Y4	Z4	X5	Y5	Z5	X6	Y6	Z6	X7	Y7	Z7	X8	Y8	Z8	X9	Y9	Z9	X10	Y10	Z10	X11	Y11	Z11	X12	Y12	Z12	X13	Y13	Z13	X14	Y14	Z14	X15	Y15	Z15	X16	Y16	Z16	X17	Y17	Z17	X18	Y18	Z18	X19	Y19	Z19	X20	Y20	Z20	X21	Y21	Z21	X22	Y22	Z22	X23	Y23	Z23	X24	Y24	Z24	X25	Y25	Z25	X26	Y26	Z26	X27	Y27	Z27	X28	Y28	Z28	X29	Y29	Z29	X30	Y30	Z30	X31	Y31	Z31	X32	Y32	Z32	X33	Y33	Z33	

53	24.699714285714	578.674004501520	1012.673906391100	475.872767757413	777.679854465544	1441.820351242184	305.885274307001	880.844051640348	1358.515728758027	460.392766808484	804.390251209260	1428.911140273497	640.386904789556	785.131814724623	1492.599991551668	458.740562459161	807.651766652942	938.471479387270	579.996665252067	783.653286477999	961.868941899193	309.012215735682	872.676220105981	755.910281804004	551.568572229997	822.138103784450	640.664011258423	627.610517761660	905.236491889297	590.621397608455	546.905773004663	911.864449524564	476.860412295951	570.040423534468	831.644900674367	750.677851217798	336.294305444865	740.665847922728	634.672052139118	284.313197498522	826.928323973120	557.034496712333	345.422404967109	827.986950000027	485.426822876839	357.148572306308	796.825815610869	413.624956033352	351.934824766905	702.569854230775	303.283094883023	302.951687420893	745.317469717816	191.350223097022	376.421265596501	828.916941979601	410.554723912939	582.313611970197	706.284161863872	384.840443748481	647.271306449898	680.068420089589	276.277786263712	603.206424542147	477.902501531497	247.923162913374	577.396346427669	628.034205770009	153.223093371468	622.435006718505	519.451222618699	177.379791044923	653.168714952894	665.792057800260	31.242320521276	654.649842559407	608.545956671521	38.872156229743	418.179155544891	682.566950548589	35.499672271370	337.958088541075	766.721905086022	95.450834354536	364.405311702260	894.781584948740	39.823138091118	336.020197777982	697.000623214763	1116.000451496812	148.440547652727	878.313550226838	930.652328917030	159.325528811179	698.938586956382	1096.737359080697	744.763869500273	704.159275260709	837.455450750013	771.652331357563	
54	24.712785714286	576.972225997207	1012.921792669201	474.050132518893	778.237410794095	1441.654004510214	304.159750662033	879.956795230377	1358.527596365726	459.678623882969	802.219963560083	1429.425252421339	638.886622983629	784.645649942303	1492.740467627086	457.035407038651	805.569770392375	939.260826515177	579.139354769018	782.554727564826	961.853849833057	308.056315635048	874.331163986859	760.222466407485	549.568236107628	827.328627630300	643.742761573766	625.839517276943	911.555061807965	595.944807030719	544.806593238531	921.000794510140	481.779975403547	567.603619210586	829.054776259834	749.761952237618	335.272126160110	737.017569815822	634.557064580547	283.546397099389	822.399124369404	556.300967363207	344.925937691390	822.762338993436	484.813315453347	356.846624426532	791.480508075782	413.252333774134	351.565454238287	696.913220471449	303.167197153184	302.611513635667	739.171274251430	191.176168073022	376.275812037015	838.378831985515	414.409403209982	579.890063523136	715.583934514974	388.201897218457	644.525310656892	690.053964665890	279.374102036810	600.647552306437	488.226331944859	250.160868954853	574.514710555748	638.774386147378	155.984678805459	619.686450510552	530.008821397599	179.803182817085	650.401522631800	676.562158641098	32.440044315344	652.104370428702	601.926100115887	38.902629046146	418.116489747709	675.979378073405	35.489130965870	337.899568565195	760.151926673024	95.435729660569	364.334985742256	888.193241078453	39.781966134927	335.965443758740	700.981243100827	1115.888223329229	144.991270297043	885.832495894004	934.599817203871	158.684169441522	691.813670909711	1099.106190141760	743.350774821643	691.327331132978	840.137519207500	771.820595377643	
55	24.725857142857	575.269895706829	1013.331495084718	472.306963659744	778.867546457478	1441.586574777017	302.585893221294	879.077338674945	1358.632505018504	459.112517894884	800.063074070118	1430.046974516687	637.513147374332	784.172672740169	1492.969544059005	455.484290694754	803.378827466159	940.216577698621	578.487246300133	781.604317799044	961.935409273085	307.250661239991	875.449246390775	764.591361832992	547.889640395953	831.757996892561	647.021824791943	624.301031642809	917.013088713273	601.410888935269	542.985338985936	929.269632938128	487.056027323104	565.490319750438	826.449977579506	748.896277628103	334.553430951841	733.371401909860	634.493503409693	282.984987056434	817.815535167153	555.605145418057	344.686073392362	817.458543932616	484.234836129605	356.791155620061	786.075932298544	412.945552481721	351.379787714980	691.230416173505	303.120679173613	302.380329784011	733.000928746320	191.050702277983	376.195692491749	847.422697071921	418.321155650578	577.692420057696	724.667363299478	390.601427576914	641.876080435691	700.691990485589	281.383943862687	598.055474329252	499.310992830847	249.297804583757	571.513129712282	651.213237466706	157.459273937012	616.753680740357	542.133124068260	179.654572797547	647.493633267390	690.531619112710	33.511548618790	649.284570673522	595.299565485745	38.955888297448	418.059193327877	669.396725895011	35.493404663836	337.856796259565	753.590324462742	95.435836523723	364.276509225874	881.604055369898	39.739235337438	335.921357290605	705.044124793384	1115.805070834122	141.946935639184	893.119832826267	938.445633098447	158.487669381621	685.091690479526	1101.526923587684	742.077872370952	679.668031096744	842.952207249349	771.988822293765	
56	24.738928571429	573.563067353216	1013.895515368728	470.622862791243	779.586985173208	1441.607323085697	301.155729024013	878.219935137826	1358.809493423624	458.682966134274	797.932952515187	1430.760874474991	636.260136648052	783.716826263674	1493.273644311569	454.075374452241	801.077297639777	941.300732809496	578.043309686421	780.839197647653	962.105903674713	306.595126937761	876.046966358110	768.930361967880	546.534526056845	835.452732616102	650.403527254479	623.009694436487	921.590023110736	606.871161448826	541.423746710291	936.610732866152	492.559051176285	563.716676635717	823.826734345477	748.070042347325	334.142213089715	729.729519723651	634.479666369564	282.604826030712	813.179883597932	554.944876611142	344.673006836635	812.075317256113	483.687367904614	356.946968228017	780.612772782914	412.697135921153	351.349877006810	685.520075133646	303.135148927969	302.239639218156	726.807409015686	190.969957130772	376.167454492048	856.016668004947	422.174535147520	575.743453769473	733.567881238629	391.912820295325	639.385786893812	712.014219109133	282.223974096912	595.489205126428	511.287356842258	245.369121796385	568.475357525990	665.368641522922	157.576366187471	613.731744305113	555.881248176709	176.959492538848	644.537691694797	707.617050475741	34.289371497275	646.311782342242	588.670154730144	39.029257578351	418.006418719512	662.819377947722	35.510501423979	337.827332627265	747.036982316959	95.448661904246	364.227567447523	875.016294697314	39.695541833481	335.887295665660	709.145855671469	1115.745282199932	139.315868962702	900.161870744647	942.193594828641	158.747239378613	678.820716664096	1103.931898821366	740.904821843480	669.212508273017	845.788936874276	772.152277336537	
57	24.752000000000	571.843453416541	1014.591928875945	468.980338411335	780.408546408276	1441.689979746226	299.861682636904	877.396428532334	1359.024409812275	458.382754566177	795.838083658433	1431.538858050340	635.122405394210	783.281529022541	1493.628677553361	452.797156351367	798.669928790297	942.458812563306	577.806387277510	780.276290370703	962.342679251552	306.092250012151	876.149947074685	773.139451821282	545.499115651445	838.437483363212	653.776711655518	621.977750145764	925.266971057809	612.162453621263	540.103325982604	942.963844105394	498.143946351276	562.285790205298	821.175954816607	747.270106929546	334.038170513966	726.098745970793	634.507803218314	282.374690656804	808.502825217175	554.315634634462	344.848497514589	806.623480345864	483.163820210088	357.268126398651	775.100325206823	412.493687449077	351.441623395847	679.785577415062	303.198003512486	302.168615824047	720.594520848427	190.925997163874	376.176515555181	864.119998753385	425.858976150072	574.058805153163	742.329031720210	392.058234657209	637.116634124299	724.037683493738	281.877806427079	593.013929084786	524.313226379181	238.523119007633	565.503501360532	681.228026242953	156.364951442293	610.717365822549	571.313325723071	171.861053845860	641.635502833757	727.649185724583	34.693520535333	643.298250013084	582.043057895638	39.118755116641	417.957468920350	656.247309889747	35.537803814711	337.808611007859	740.491262535759	95.470531058219	364.186451140863	868.432097484229	39.651404615105	335.862299138618	713.242623990326	1115.688608761242	137.094097801791	906.943705999063	945.833584927343	159.463965086224	673.039675966736	1106.244302987794	739.798485715525	659.977984270713	848.537608186243	772.303572269872	
58	24.765071428571	570.101938494817	1015.387528200939	467.367264325870	781.338137535604	1441.796905878008	298.698282379669	876.615865064691	1359.234966555436	458.208104845461	793.784605656365	1432.343056070168	634.095986250008	782.870123632118	1494.002866982899	451.640731945717	796.169292981001	943.626750755073	577.769450872268	779.906809188417	962.609389380657	305.745842279826	875.786800577080	777.106715838318	544.776215232813	840.720194755203	657.019593917318	621.213883898964	928.019921359404	617.113788807228	539.011425268573	948.264073972241	503.657293621049	561.189743356874	818.488115321920	746.482803437025	334.231802477543	722.489582175087	634.564926146650	282.259815242780	803.802448936320	553.710511225894	345.168938174797	801.124593488908	482.655316956607	357.702772522166	769.555944489631	412.317727669447	351.618324641556	674.034925867158	303.293889415115	302.146362679081	714.368634407040	190.907507464566	376.208984207576	871.679085493160	429.275732553302	572.647613315565	750.999713633869	391.011638287893	635.131238635462	736.762003603453	280.396413508083	590.697794886870	538.560044175850	229.005662024662	562.715542120777	698.750055062564	153.949472322777	607.801110397393	588.491431594359	164.605511040416	638.893791078905	750.395347850029	34.754855418078	640.332951426818	575.424059787779	39.219471788180	417.911910125388	649.680161445670	35.572379247951	337.798154499587	733.952098401819	95.496999670137	364.152261690946	861.853176930415	39.607203981019	335.845164070547	717.294279400299	1115.603474168192	135.267539932206	913.449222124039	949.340304818746	160.628004847852	667.778757464361	1108.384615715900	738.735248733692	651.969876306863	851.092987119597	772.432136857763	
59	24.778142857143	568.332804824480	1016.241642068257	465.779087555808	782.372589920030	1441.884820240896	297.663362457783	875.884464852390	1359.396467330403	458.156926737862	791.779008629664	1433.129775287973	633.177822667686	782.486449402193	1494.360423902957	450.601310103789	793.596603313587	944.738721598335	577.919768327355	779.693950455841	962.858770213623	305.559990050344	874.983818867431	780.711716676353	544.356923645299	842.282865282027	660.004282430906	620.721908715215	929.816131004285	621.554422341935	538.145012760967	952.441085554565	508.945528685483	560.411019919436	815.757712760693	745.695176506629	334.700740198147	718.914110454461	634.634437144233	282.225793597769	799.101606830886	553.120462941593	345.589168421496	795.608361689166	482.152475210321	358.198629810433	764.002528415501	412.149951416299	351.844367775578	668.279430986705	303.406359165686	302.154128737586	708.137901791108	190.900785925544	376.253324203442	878.627287620094	432.343600996691	571.512135728801	759.629961844168	388.798573785713	633.491820940496	750.167247360542	277.893391032739	588.606993891001	554.196748182336	217.144172023593	560.237216521705	717.864485558686	150.538059423345	605.062261282898	607.471917501222	155.524756278476	636.417155291563	775.576242365313	34.617758079787	637.475903120126	568.818426495443	39.326129376238	417.869576054685	643.117264051537	35.611238082872	337.793798650706	727.417990857253	95.523352825584	364.124933643524	855.280517838854	39.563199725898	335.834522352974	721.267357842780	1115.452021489524	133.815352453340	919.661417791242	952.674860941431	162.219130488767	663.060298687938	1110.277093347112	737.701937871546	645.184328137014	853.359241092967	772.524057411659	
